<svg xmlns="http://www.w3.org/2000/svg" xmlns:xlink="http://www.w3.org/1999/xlink" width="500" zoomAndPan="magnify" viewBox="0 0 375 374.999991" height="500" preserveAspectRatio="xMidYMid meet" version="1.0"><defs><clipPath id="e0c63dad8e"><path d="M 1.398438 1.398438 L 373.601562 1.398438 L 373.601562 373.601562 L 1.398438 373.601562 Z M 1.398438 1.398438 " clip-rule="nonzero"/></clipPath><clipPath id="f26d8be957"><path d="M 187.5 1.398438 C 84.71875 1.398438 1.398438 84.71875 1.398438 187.5 C 1.398438 290.28125 84.71875 373.601562 187.5 373.601562 C 290.28125 373.601562 373.601562 290.28125 373.601562 187.5 C 373.601562 84.71875 290.28125 1.398438 187.5 1.398438 Z M 187.5 1.398438 " clip-rule="nonzero"/></clipPath><clipPath id="481bb93b89"><path d="M 62.605469 63 L 312.523438 63 L 312.523438 314 L 62.605469 314 Z M 62.605469 63 " clip-rule="nonzero"/></clipPath><clipPath id="e6e72d98ee"><path d="M 155.894531 155.988281 L 220.4375 155.988281 L 220.4375 220.53125 L 155.894531 220.53125 Z M 155.894531 155.988281 " clip-rule="nonzero"/></clipPath></defs><g clip-path="url(#e0c63dad8e)"><g clip-path="url(#f26d8be957)"><path fill="#b3241f" d="M 1.398438 1.398438 L 373.601562 1.398438 L 373.601562 373.601562 L 1.398438 373.601562 Z M 1.398438 1.398438 " fill-opacity="1" fill-rule="nonzero"/></g></g><path fill="#ffffff" d="M 187.480469 163.597656 C 188.300781 163.597656 189.113281 163.636719 189.925781 163.714844 C 190.738281 163.796875 191.546875 163.914062 192.347656 164.074219 C 193.148438 164.234375 193.941406 164.433594 194.722656 164.671875 C 195.503906 164.90625 196.269531 165.183594 197.027344 165.496094 C 197.78125 165.808594 198.519531 166.15625 199.238281 166.539062 C 199.957031 166.925781 200.660156 167.34375 201.335938 167.800781 C 202.015625 168.253906 202.671875 168.738281 203.304688 169.257812 C 203.933594 169.773438 204.539062 170.324219 205.117188 170.902344 C 205.695312 171.476562 206.242188 172.082031 206.761719 172.714844 C 207.277344 173.34375 207.765625 174 208.21875 174.679688 C 208.671875 175.359375 209.089844 176.058594 209.476562 176.777344 C 209.863281 177.5 210.210938 178.238281 210.523438 178.992188 C 210.835938 179.746094 211.109375 180.515625 211.347656 181.296875 C 211.585938 182.078125 211.78125 182.867188 211.941406 183.667969 C 212.101562 184.472656 212.222656 185.277344 212.300781 186.089844 C 212.382812 186.902344 212.421875 187.71875 212.421875 188.535156 C 212.421875 189.351562 212.382812 190.167969 212.300781 190.980469 C 212.222656 191.792969 212.101562 192.597656 211.941406 193.402344 C 211.78125 194.203125 211.585938 194.992188 211.347656 195.773438 C 211.109375 196.554688 210.835938 197.324219 210.523438 198.078125 C 210.210938 198.832031 209.863281 199.570312 209.476562 200.292969 C 209.089844 201.011719 208.671875 201.710938 208.21875 202.390625 C 207.765625 203.070312 207.277344 203.726562 206.761719 204.355469 C 206.242188 204.988281 205.695312 205.59375 205.117188 206.167969 C 204.539062 206.746094 203.933594 207.296875 203.304688 207.8125 C 202.671875 208.332031 202.015625 208.816406 201.335938 209.269531 C 200.660156 209.726562 199.957031 210.144531 199.238281 210.527344 C 198.519531 210.914062 197.78125 211.261719 197.027344 211.574219 C 196.269531 211.886719 195.503906 212.164062 194.722656 212.398438 C 193.941406 212.636719 193.148438 212.835938 192.347656 212.996094 C 191.546875 213.152344 190.738281 213.273438 189.925781 213.355469 C 189.113281 213.433594 188.300781 213.472656 187.480469 213.472656 C 186.664062 213.472656 185.851562 213.433594 185.039062 213.355469 C 184.226562 213.273438 183.417969 213.152344 182.617188 212.996094 C 181.816406 212.835938 181.023438 212.636719 180.242188 212.398438 C 179.460938 212.164062 178.691406 211.886719 177.9375 211.574219 C 177.183594 211.261719 176.445312 210.914062 175.726562 210.527344 C 175.003906 210.144531 174.304688 209.726562 173.628906 209.269531 C 172.949219 208.816406 172.292969 208.332031 171.660156 207.8125 C 171.03125 207.296875 170.425781 206.746094 169.847656 206.167969 C 169.269531 205.59375 168.722656 204.988281 168.203125 204.355469 C 167.6875 203.726562 167.199219 203.070312 166.746094 202.390625 C 166.292969 201.710938 165.875 201.011719 165.488281 200.292969 C 165.101562 199.570312 164.753906 198.832031 164.441406 198.078125 C 164.128906 197.324219 163.855469 196.554688 163.617188 195.773438 C 163.378906 194.992188 163.183594 194.203125 163.023438 193.402344 C 162.863281 192.597656 162.742188 191.792969 162.664062 190.980469 C 162.582031 190.167969 162.542969 189.351562 162.542969 188.535156 C 162.542969 187.71875 162.582031 186.902344 162.664062 186.089844 C 162.742188 185.277344 162.863281 184.472656 163.023438 183.667969 C 163.183594 182.867188 163.378906 182.078125 163.617188 181.296875 C 163.855469 180.515625 164.128906 179.746094 164.441406 178.992188 C 164.753906 178.238281 165.101562 177.5 165.488281 176.777344 C 165.875 176.058594 166.292969 175.359375 166.746094 174.679688 C 167.199219 174 167.6875 173.34375 168.203125 172.714844 C 168.722656 172.082031 169.269531 171.476562 169.847656 170.902344 C 170.425781 170.324219 171.03125 169.773438 171.660156 169.257812 C 172.292969 168.738281 172.949219 168.253906 173.625 167.800781 C 174.304688 167.34375 175.003906 166.925781 175.726562 166.539062 C 176.445312 166.15625 177.183594 165.808594 177.9375 165.496094 C 178.691406 165.183594 179.460938 164.90625 180.242188 164.671875 C 181.023438 164.433594 181.816406 164.234375 182.617188 164.074219 C 183.417969 163.914062 184.226562 163.796875 185.039062 163.714844 C 185.851562 163.636719 186.664062 163.597656 187.480469 163.597656 Z M 187.480469 163.597656 " fill-opacity="1" fill-rule="nonzero"/><path fill="#ffffff" d="M 288.574219 196 C 289.164062 196 289.75 196.027344 290.335938 196.085938 C 290.925781 196.144531 291.507812 196.230469 292.085938 196.34375 C 292.664062 196.460938 293.234375 196.605469 293.800781 196.773438 C 294.363281 196.945312 294.917969 197.144531 295.464844 197.371094 C 296.007812 197.597656 296.539062 197.847656 297.0625 198.125 C 297.582031 198.402344 298.085938 198.707031 298.578125 199.035156 C 299.066406 199.363281 299.539062 199.710938 299.996094 200.085938 C 300.453125 200.460938 300.886719 200.855469 301.304688 201.273438 C 301.722656 201.691406 302.117188 202.125 302.492188 202.582031 C 302.867188 203.039062 303.214844 203.511719 303.542969 204.003906 C 303.871094 204.492188 304.175781 204.996094 304.453125 205.519531 C 304.730469 206.039062 304.984375 206.570312 305.207031 207.113281 C 305.433594 207.660156 305.632812 208.214844 305.804688 208.777344 C 305.976562 209.34375 306.117188 209.914062 306.234375 210.492188 C 306.347656 211.070312 306.433594 211.652344 306.492188 212.242188 C 306.550781 212.828125 306.578125 213.417969 306.578125 214.003906 C 306.578125 214.59375 306.550781 215.183594 306.492188 215.769531 C 306.433594 216.359375 306.347656 216.941406 306.234375 217.519531 C 306.117188 218.097656 305.976562 218.667969 305.804688 219.234375 C 305.632812 219.796875 305.433594 220.351562 305.207031 220.898438 C 304.984375 221.441406 304.730469 221.972656 304.453125 222.492188 C 304.175781 223.015625 303.871094 223.519531 303.542969 224.007812 C 303.214844 224.5 302.867188 224.972656 302.492188 225.429688 C 302.117188 225.886719 301.722656 226.320312 301.304688 226.738281 C 300.886719 227.15625 300.453125 227.550781 299.996094 227.925781 C 299.539062 228.300781 299.066406 228.648438 298.578125 228.976562 C 298.085938 229.304688 297.582031 229.609375 297.0625 229.886719 C 296.539062 230.164062 296.007812 230.414062 295.464844 230.640625 C 294.917969 230.867188 294.363281 231.066406 293.800781 231.238281 C 293.234375 231.40625 292.664062 231.550781 292.085938 231.667969 C 291.507812 231.78125 290.925781 231.867188 290.335938 231.925781 C 289.75 231.984375 289.164062 232.011719 288.574219 232.011719 C 287.984375 232.011719 287.394531 231.984375 286.808594 231.925781 C 286.21875 231.867188 285.636719 231.78125 285.058594 231.667969 C 284.480469 231.550781 283.910156 231.40625 283.34375 231.238281 C 282.78125 231.066406 282.226562 230.867188 281.683594 230.640625 C 281.136719 230.414062 280.605469 230.164062 280.085938 229.886719 C 279.5625 229.609375 279.058594 229.304688 278.570312 228.976562 C 278.078125 228.648438 277.605469 228.300781 277.148438 227.925781 C 276.695312 227.550781 276.257812 227.15625 275.839844 226.738281 C 275.421875 226.320312 275.027344 225.886719 274.652344 225.429688 C 274.277344 224.972656 273.929688 224.5 273.601562 224.007812 C 273.273438 223.519531 272.96875 223.015625 272.691406 222.492188 C 272.414062 221.972656 272.164062 221.441406 271.9375 220.898438 C 271.710938 220.351562 271.511719 219.796875 271.339844 219.234375 C 271.171875 218.667969 271.027344 218.097656 270.910156 217.519531 C 270.796875 216.941406 270.710938 216.359375 270.652344 215.769531 C 270.59375 215.183594 270.566406 214.59375 270.566406 214.003906 C 270.566406 213.417969 270.59375 212.828125 270.652344 212.242188 C 270.710938 211.652344 270.796875 211.070312 270.910156 210.492188 C 271.027344 209.914062 271.171875 209.34375 271.339844 208.777344 C 271.511719 208.214844 271.710938 207.660156 271.9375 207.113281 C 272.164062 206.570312 272.414062 206.039062 272.691406 205.519531 C 272.96875 204.996094 273.273438 204.492188 273.601562 204.003906 C 273.929688 203.511719 274.277344 203.039062 274.652344 202.582031 C 275.027344 202.125 275.421875 201.691406 275.839844 201.273438 C 276.257812 200.855469 276.695312 200.460938 277.148438 200.085938 C 277.605469 199.710938 278.078125 199.363281 278.570312 199.035156 C 279.058594 198.707031 279.5625 198.402344 280.085938 198.125 C 280.605469 197.847656 281.136719 197.597656 281.683594 197.371094 C 282.226562 197.144531 282.78125 196.945312 283.34375 196.773438 C 283.910156 196.605469 284.480469 196.460938 285.058594 196.34375 C 285.636719 196.230469 286.21875 196.144531 286.808594 196.085938 C 287.394531 196.027344 287.984375 196 288.574219 196 Z M 288.574219 196 " fill-opacity="1" fill-rule="nonzero"/><path fill="#ffffff" d="M 168.089844 275.496094 C 168.679688 275.496094 169.269531 275.523438 169.855469 275.582031 C 170.441406 275.640625 171.023438 275.726562 171.601562 275.839844 C 172.179688 275.957031 172.753906 276.097656 173.316406 276.269531 C 173.882812 276.441406 174.4375 276.640625 174.980469 276.863281 C 175.527344 277.089844 176.058594 277.34375 176.578125 277.621094 C 177.097656 277.898438 177.601562 278.203125 178.09375 278.527344 C 178.585938 278.855469 179.058594 279.207031 179.511719 279.582031 C 179.96875 279.957031 180.40625 280.351562 180.824219 280.769531 C 181.238281 281.183594 181.636719 281.621094 182.007812 282.078125 C 182.382812 282.535156 182.734375 283.007812 183.0625 283.496094 C 183.390625 283.988281 183.691406 284.492188 183.96875 285.011719 C 184.25 285.53125 184.5 286.066406 184.726562 286.609375 C 184.953125 287.15625 185.148438 287.710938 185.320312 288.273438 C 185.492188 288.839844 185.636719 289.410156 185.75 289.988281 C 185.867188 290.566406 185.953125 291.148438 186.007812 291.734375 C 186.066406 292.324219 186.097656 292.910156 186.097656 293.5 C 186.097656 294.089844 186.066406 294.679688 186.007812 295.265625 C 185.953125 295.851562 185.867188 296.433594 185.75 297.011719 C 185.636719 297.59375 185.492188 298.164062 185.320312 298.726562 C 185.148438 299.292969 184.953125 299.847656 184.726562 300.390625 C 184.5 300.9375 184.25 301.46875 183.96875 301.988281 C 183.691406 302.507812 183.390625 303.015625 183.0625 303.503906 C 182.734375 303.996094 182.382812 304.46875 182.007812 304.925781 C 181.636719 305.378906 181.238281 305.816406 180.824219 306.234375 C 180.40625 306.648438 179.96875 307.046875 179.511719 307.417969 C 179.058594 307.792969 178.585938 308.144531 178.09375 308.472656 C 177.601562 308.800781 177.097656 309.101562 176.578125 309.382812 C 176.058594 309.660156 175.527344 309.910156 174.980469 310.136719 C 174.4375 310.363281 173.882812 310.5625 173.316406 310.730469 C 172.753906 310.902344 172.179688 311.046875 171.601562 311.160156 C 171.023438 311.277344 170.441406 311.363281 169.855469 311.421875 C 169.269531 311.476562 168.679688 311.507812 168.089844 311.507812 C 167.5 311.507812 166.910156 311.476562 166.324219 311.421875 C 165.738281 311.363281 165.15625 311.277344 164.578125 311.160156 C 164 311.046875 163.425781 310.902344 162.863281 310.730469 C 162.296875 310.5625 161.742188 310.363281 161.199219 310.136719 C 160.652344 309.910156 160.121094 309.660156 159.601562 309.382812 C 159.082031 309.101562 158.578125 308.800781 158.085938 308.472656 C 157.59375 308.144531 157.121094 307.792969 156.667969 307.417969 C 156.210938 307.046875 155.773438 306.648438 155.355469 306.234375 C 154.941406 305.816406 154.542969 305.378906 154.171875 304.925781 C 153.796875 304.46875 153.445312 303.996094 153.117188 303.503906 C 152.789062 303.015625 152.488281 302.507812 152.210938 301.988281 C 151.929688 301.46875 151.679688 300.9375 151.453125 300.390625 C 151.226562 299.847656 151.03125 299.292969 150.859375 298.726562 C 150.6875 298.164062 150.542969 297.59375 150.429688 297.011719 C 150.3125 296.433594 150.226562 295.851562 150.171875 295.265625 C 150.113281 294.679688 150.082031 294.089844 150.082031 293.5 C 150.082031 292.910156 150.113281 292.324219 150.171875 291.734375 C 150.226562 291.148438 150.3125 290.566406 150.429688 289.988281 C 150.542969 289.410156 150.6875 288.839844 150.859375 288.273438 C 151.03125 287.710938 151.226562 287.15625 151.453125 286.609375 C 151.679688 286.066406 151.929688 285.53125 152.210938 285.011719 C 152.488281 284.492188 152.789062 283.988281 153.117188 283.496094 C 153.445312 283.007812 153.796875 282.535156 154.171875 282.078125 C 154.542969 281.621094 154.941406 281.183594 155.355469 280.769531 C 155.773438 280.351562 156.210938 279.957031 156.667969 279.582031 C 157.121094 279.207031 157.59375 278.855469 158.085938 278.527344 C 158.578125 278.203125 159.082031 277.898438 159.601562 277.621094 C 160.121094 277.34375 160.652344 277.089844 161.199219 276.863281 C 161.742188 276.640625 162.296875 276.441406 162.863281 276.269531 C 163.425781 276.097656 164 275.957031 164.578125 275.839844 C 165.15625 275.726562 165.738281 275.640625 166.324219 275.582031 C 166.910156 275.523438 167.5 275.496094 168.089844 275.496094 Z M 168.089844 275.496094 " fill-opacity="1" fill-rule="nonzero"/><path fill="#ffffff" d="M 130.054688 91.28125 C 130.054688 81.355469 121.976562 73.277344 112.046875 73.277344 C 102.121094 73.277344 94.042969 81.355469 94.042969 91.28125 C 94.042969 101.210938 102.121094 109.289062 112.046875 109.289062 C 121.976562 109.289062 130.054688 101.210938 130.054688 91.28125 Z M 130.054688 91.28125 " fill-opacity="1" fill-rule="nonzero"/><g clip-path="url(#481bb93b89)"><path fill="#ffffff" d="M 187.480469 93.867188 C 184.402344 90.726562 181.304688 87.777344 178.210938 85.046875 C 156.625 66.003906 137.222656 59.453125 123.582031 66.601562 C 123.078125 66.863281 122.585938 67.148438 122.101562 67.445312 C 124.976562 68.664062 127.582031 70.390625 129.816406 72.503906 C 140.28125 69.191406 155.789062 75.753906 173.007812 90.945312 C 176.035156 93.617188 179.0625 96.503906 182.082031 99.585938 C 171.5 111.210938 161.171875 125.054688 151.613281 140.414062 C 140.550781 141.703125 130.019531 143.59375 120.285156 146.039062 C 117.621094 135.730469 115.84375 125.9375 115.050781 116.972656 C 114.066406 117.085938 113.0625 117.152344 112.046875 117.152344 C 110.371094 117.152344 108.734375 116.984375 107.144531 116.679688 C 107.941406 126.359375 109.835938 136.957031 112.722656 148.097656 C 108.488281 149.347656 104.429688 150.707031 100.582031 152.175781 C 76.117188 161.53125 62.644531 174.441406 62.644531 188.535156 C 62.644531 202.628906 76.117188 215.539062 100.582031 224.894531 C 104.417969 226.359375 108.457031 227.714844 112.675781 228.957031 C 110.332031 238.035156 108.636719 246.789062 107.664062 255.050781 C 104.285156 283.636719 109.941406 303.320312 123.582031 310.46875 C 128.847656 313.226562 135.011719 313.949219 141.851562 312.664062 C 144.605469 312.148438 147.472656 311.304688 150.433594 310.140625 C 148.71875 308.109375 147.3125 305.808594 146.285156 303.3125 C 142.960938 304.519531 139.503906 305.335938 136.148438 305.421875 C 133.035156 305.503906 130 304.953125 127.230469 303.503906 C 116.835938 298.054688 112.546875 280.730469 115.472656 255.972656 C 116.402344 248.082031 118.019531 239.710938 120.261719 231.023438 C 130 233.472656 140.539062 235.367188 151.613281 236.65625 C 156.898438 245.148438 162.421875 253.175781 168.089844 260.625 L 182.074219 277.476562 L 187.476562 283.195312 C 190.558594 286.339844 193.65625 289.289062 196.753906 292.023438 C 218.339844 311.066406 237.742188 317.617188 251.382812 310.46875 C 262.445312 304.671875 268.253906 290.632812 268.253906 270.28125 C 268.253906 265.539062 267.941406 260.453125 267.300781 255.050781 C 266.328125 246.792969 264.632812 238.039062 262.289062 228.960938 C 263.746094 228.53125 265.179688 228.085938 266.59375 227.628906 C 265.207031 225.402344 264.152344 222.957031 263.492188 220.351562 C 262.40625 220.695312 261.308594 221.03125 260.191406 221.359375 C 257.074219 210.703125 253.105469 199.679688 248.367188 188.535156 C 253.117188 177.367188 257.09375 166.316406 260.214844 155.636719 C 288.058594 163.90625 304.457031 176.472656 304.457031 188.535156 C 304.457031 190.042969 304.210938 191.550781 303.722656 193.054688 C 306.035156 194.734375 308.058594 196.78125 309.707031 199.117188 C 311.441406 195.6875 312.320312 192.152344 312.320312 188.535156 C 312.320312 174.441406 298.847656 161.53125 274.382812 152.175781 C 270.546875 150.710938 266.507812 149.355469 262.289062 148.113281 C 264.632812 139.035156 266.328125 130.28125 267.300781 122.019531 C 267.941406 116.617188 268.253906 111.53125 268.253906 106.789062 C 268.253906 86.441406 262.445312 72.398438 251.382812 66.601562 C 237.742188 59.453125 218.339844 66.003906 196.753906 85.046875 C 193.660156 87.777344 190.5625 90.726562 187.480469 93.867188 Z M 161.550781 237.640625 C 169.984375 238.332031 178.664062 238.691406 187.480469 238.691406 C 196.3125 238.691406 204.976562 238.335938 213.382812 237.652344 C 205.15625 250.316406 196.386719 261.859375 187.472656 271.726562 C 178.546875 261.867188 169.792969 250.351562 161.550781 237.640625 Z M 259.492188 255.972656 C 262.414062 280.730469 258.128906 298.054688 247.734375 303.503906 C 237.335938 308.953125 220.648438 302.617188 201.957031 286.125 C 198.925781 283.453125 195.894531 280.558594 192.871094 277.472656 C 203.4375 265.84375 213.796875 251.953125 223.324219 236.667969 C 234.421875 235.378906 244.964844 233.488281 254.707031 231.035156 C 256.945312 239.71875 258.5625 248.085938 259.492188 255.972656 Z M 161.550781 139.429688 C 169.796875 126.710938 178.554688 115.195312 187.480469 105.332031 C 196.410156 115.195312 205.167969 126.710938 213.414062 139.429688 C 204.980469 138.738281 196.300781 138.378906 187.480469 138.378906 C 178.664062 138.378906 169.984375 138.738281 161.550781 139.429688 Z M 146.472656 148.949219 C 143.8125 153.519531 141.21875 158.199219 138.714844 162.976562 C 135.996094 168.164062 133.429688 173.371094 131.023438 178.566406 C 127.648438 170.070312 124.746094 161.683594 122.363281 153.558594 C 129.746094 151.707031 137.8125 150.148438 146.472656 148.949219 Z M 70.507812 188.535156 C 70.507812 176.464844 86.925781 163.890625 114.796875 155.625 C 117.914062 166.28125 121.882812 177.34375 126.609375 188.507812 C 121.855469 199.683594 117.875 210.746094 114.75 221.429688 C 86.90625 213.164062 70.507812 200.597656 70.507812 188.535156 Z M 122.332031 223.503906 C 124.71875 215.34375 127.625 206.953125 131.011719 198.449219 C 133.425781 203.671875 135.992188 208.898438 138.714844 214.09375 C 141.21875 218.871094 143.8125 223.550781 146.472656 228.121094 C 137.800781 226.917969 129.726562 225.359375 122.332031 223.503906 Z M 252.605469 223.417969 C 245.066406 225.296875 236.984375 226.839844 228.539062 228.027344 C 231.191406 223.476562 233.769531 218.828125 236.25 214.09375 C 238.976562 208.890625 241.546875 203.675781 243.957031 198.464844 C 247.328125 206.933594 250.226562 215.292969 252.605469 223.417969 Z M 252.632812 153.566406 C 250.246094 161.71875 247.34375 170.105469 243.957031 178.605469 C 241.546875 173.394531 238.976562 168.179688 236.25 162.976562 C 233.746094 158.199219 231.152344 153.519531 228.492188 148.949219 C 237.164062 150.148438 245.238281 151.710938 252.632812 153.566406 Z M 218.644531 147.769531 C 222.324219 153.839844 225.882812 160.136719 229.285156 166.628906 C 233.109375 173.929688 236.621094 181.253906 239.808594 188.535156 C 236.621094 195.816406 233.109375 203.140625 229.285156 210.441406 C 225.910156 216.882812 222.355469 223.164062 218.671875 229.230469 C 208.582031 230.277344 198.097656 230.828125 187.480469 230.828125 C 176.5 230.828125 166.082031 230.289062 156.320312 229.300781 C 152.640625 223.230469 149.082031 216.929688 145.679688 210.441406 C 141.859375 203.152344 138.351562 195.8125 135.167969 188.511719 C 138.347656 181.242188 141.859375 173.921875 145.679688 166.628906 C 149.082031 160.136719 152.640625 153.839844 156.320312 147.769531 C 166.082031 146.78125 176.5 146.242188 187.480469 146.242188 C 198.464844 146.242188 208.882812 146.78125 218.644531 147.769531 Z M 247.734375 73.566406 C 258.128906 79.015625 262.414062 96.339844 259.492188 121.097656 C 258.5625 128.988281 256.945312 137.355469 254.703125 146.046875 C 244.964844 143.597656 234.425781 141.703125 223.351562 140.414062 C 213.792969 125.054688 203.464844 111.210938 192.882812 99.585938 C 195.898438 96.503906 198.929688 93.617188 201.957031 90.945312 C 220.648438 74.453125 237.335938 68.117188 247.734375 73.566406 Z M 247.734375 73.566406 " fill-opacity="1" fill-rule="nonzero"/></g><g clip-path="url(#e6e72d98ee)"><path fill="#ffffff" d="M 219.964844 193.476562 C 220.097656 189.136719 220.097656 189.128906 220.230469 184.792969 L 213.511719 182.171875 C 212.542969 179.613281 212.058594 178.328125 211.089844 175.769531 L 214.382812 169.351562 C 211.40625 166.203125 211.398438 166.195312 208.421875 163.03125 L 201.828125 165.925781 L 195.59375 163.113281 L 193.382812 156.253906 L 184.707031 155.988281 L 182.078125 162.703125 C 179.527344 163.675781 178.234375 164.160156 175.6875 165.128906 L 169.269531 161.835938 C 166.109375 164.804688 166.101562 164.8125 162.9375 167.785156 L 165.832031 174.390625 C 164.71875 176.878906 164.152344 178.136719 163.027344 180.621094 L 156.15625 182.835938 C 156.027344 187.171875 156.027344 187.179688 155.894531 191.511719 L 162.609375 194.140625 C 163.582031 196.6875 164.066406 197.980469 165.035156 200.539062 L 161.742188 206.949219 C 164.71875 210.109375 164.726562 210.117188 167.691406 213.277344 L 174.296875 210.382812 C 176.792969 211.5 178.050781 212.0625 180.539062 213.1875 L 182.742188 220.058594 L 191.429688 220.324219 L 194.050781 213.605469 C 196.609375 212.636719 197.890625 212.152344 200.449219 211.183594 L 206.867188 214.476562 L 213.1875 208.527344 L 210.292969 201.921875 C 211.421875 199.4375 211.984375 198.167969 213.105469 195.683594 Z M 188.0625 207.03125 C 187.441406 207.027344 186.828125 207 186.210938 206.9375 C 185.597656 206.878906 184.984375 206.785156 184.378906 206.667969 C 183.773438 206.546875 183.175781 206.394531 182.582031 206.214844 C 181.992188 206.035156 181.410156 205.828125 180.839844 205.59375 C 180.269531 205.355469 179.710938 205.089844 179.164062 204.800781 C 178.621094 204.507812 178.089844 204.191406 177.578125 203.847656 C 177.0625 203.503906 176.566406 203.136719 176.089844 202.746094 C 175.613281 202.351562 175.152344 201.9375 174.71875 201.5 C 174.28125 201.0625 173.867188 200.605469 173.472656 200.128906 C 173.082031 199.652344 172.714844 199.15625 172.371094 198.640625 C 172.027344 198.128906 171.710938 197.597656 171.417969 197.050781 C 171.125 196.507812 170.863281 195.949219 170.625 195.378906 C 170.390625 194.808594 170.183594 194.226562 170.003906 193.632812 C 169.824219 193.042969 169.671875 192.445312 169.550781 191.835938 C 169.433594 191.230469 169.339844 190.621094 169.28125 190.007812 C 169.21875 189.390625 169.191406 188.773438 169.191406 188.15625 C 169.191406 187.539062 169.21875 186.921875 169.28125 186.304688 C 169.339844 185.691406 169.433594 185.082031 169.554688 184.472656 C 169.671875 183.867188 169.824219 183.269531 170.003906 182.679688 C 170.183594 182.085938 170.390625 181.503906 170.625 180.933594 C 170.863281 180.363281 171.128906 179.804688 171.417969 179.261719 C 171.710938 178.714844 172.027344 178.183594 172.371094 177.671875 C 172.714844 177.15625 173.082031 176.660156 173.472656 176.183594 C 173.867188 175.707031 174.28125 175.25 174.71875 174.8125 C 175.15625 174.375 175.613281 173.960938 176.089844 173.566406 C 176.566406 173.175781 177.0625 172.808594 177.578125 172.464844 C 178.089844 172.121094 178.621094 171.804688 179.167969 171.511719 C 179.710938 171.222656 180.269531 170.957031 180.839844 170.71875 C 181.410156 170.484375 181.992188 170.277344 182.582031 170.097656 C 183.175781 169.917969 183.773438 169.765625 184.378906 169.648438 C 184.988281 169.527344 185.597656 169.433594 186.210938 169.375 C 186.828125 169.3125 187.445312 169.285156 188.0625 169.285156 C 188.679688 169.285156 189.296875 169.3125 189.910156 169.375 C 190.527344 169.433594 191.136719 169.527344 191.742188 169.644531 C 192.351562 169.765625 192.949219 169.917969 193.539062 170.097656 C 194.132812 170.277344 194.714844 170.484375 195.285156 170.71875 C 195.855469 170.957031 196.414062 171.21875 196.957031 171.511719 C 197.503906 171.804688 198.03125 172.121094 198.546875 172.464844 C 199.0625 172.808594 199.558594 173.175781 200.035156 173.566406 C 200.511719 173.960938 200.96875 174.375 201.40625 174.8125 C 201.84375 175.246094 202.257812 175.707031 202.652344 176.183594 C 203.042969 176.660156 203.410156 177.15625 203.753906 177.671875 C 204.097656 178.183594 204.414062 178.714844 204.707031 179.257812 C 204.996094 179.804688 205.261719 180.363281 205.5 180.933594 C 205.734375 181.503906 205.941406 182.085938 206.121094 182.675781 C 206.300781 183.269531 206.453125 183.867188 206.574219 184.472656 C 206.691406 185.078125 206.785156 185.691406 206.84375 186.304688 C 206.90625 186.921875 206.933594 187.535156 206.933594 188.15625 C 206.933594 188.773438 206.90625 189.390625 206.84375 190.003906 C 206.785156 190.621094 206.691406 191.230469 206.570312 191.835938 C 206.453125 192.441406 206.300781 193.042969 206.121094 193.632812 C 205.941406 194.226562 205.734375 194.804688 205.496094 195.378906 C 205.261719 195.949219 204.996094 196.507812 204.707031 197.050781 C 204.414062 197.597656 204.097656 198.125 203.753906 198.640625 C 203.410156 199.152344 203.042969 199.648438 202.648438 200.128906 C 202.257812 200.605469 201.84375 201.0625 201.40625 201.5 C 200.96875 201.9375 200.511719 202.351562 200.035156 202.742188 C 199.554688 203.136719 199.058594 203.503906 198.546875 203.847656 C 198.03125 204.191406 197.503906 204.507812 196.957031 204.800781 C 196.414062 205.089844 195.855469 205.355469 195.285156 205.589844 C 194.710938 205.828125 194.132812 206.035156 193.539062 206.214844 C 192.949219 206.394531 192.347656 206.546875 191.742188 206.664062 C 191.136719 206.785156 190.527344 206.878906 189.910156 206.9375 C 189.296875 207 188.679688 207.027344 188.0625 207.03125 Z M 188.0625 207.03125 " fill-opacity="1" fill-rule="nonzero"/></g></svg>